<svg xmlns="http://www.w3.org/2000/svg" xmlns:xlink="http://www.w3.org/1999/xlink" width="808" height="163" viewBox="0 0 808 163">
    <defs>
        <path id="a" d="M.038.45h10.407v20.057H.038V.45z"/>
    </defs>
    <g fill="none" fill-rule="evenodd">
        <path fill="#525252" d="M191.807 48.438c0-2.25 1.125-3.486 3.26-3.486h1.013c2.248 0 3.373 1.237 3.373 3.486v29.796h43.738V48.438c0-2.25 1.124-3.486 3.26-3.486h1.013c2.248 0 3.373 1.237 3.373 3.486v66.675c0 2.36-1.125 3.485-3.373 3.485h-1.012c-2.137 0-3.261-1.124-3.261-3.485V85.205h-43.738v29.908c0 2.36-1.125 3.485-3.373 3.485h-1.012c-2.136 0-3.261-1.124-3.261-3.485V48.438zM277.484 49.674a4.27 4.27 0 0 1 4.273-4.272h43.513c2.25 0 3.485 1.124 3.485 3.148v.675c0 2.136-1.236 3.147-3.485 3.147h-40.14v25.074h32.157c2.25 0 3.486 1.124 3.486 3.148v.45c0 2.137-1.237 3.149-3.486 3.149H285.13v26.984h40.815c2.248 0 3.485 1.013 3.485 3.036v.675c0 2.137-1.237 3.26-3.485 3.26h-44.188a4.272 4.272 0 0 1-4.273-4.272V49.674zM351.581 48.438c0-2.361 1.125-3.486 3.261-3.486h1.012c2.248 0 3.373 1.125 3.373 3.486v62.627h35.081c2.248 0 3.485 1.125 3.485 3.26v.563c0 2.024-1.237 3.26-3.485 3.26h-38.454a4.271 4.271 0 0 1-4.273-4.272V48.438zM419.381 49.786c0-2.81 2.25-4.835 5.51-4.835h1.8c3.934 0 4.946 1.8 6.632 5.734l19.115 42.39 19.227-42.39c1.686-3.935 2.698-5.734 6.633-5.734h1.575c3.26 0 5.51 2.024 5.51 4.835v65.326c0 2.362-1.013 3.486-3.262 3.486h-.899c-2.136 0-3.149-1.124-3.149-3.486v-61.39l-19.114 41.49c-1.349 3.035-2.923 4.834-6.634 4.834-3.822 0-5.284-1.799-6.633-4.835L426.69 53.722v61.39c0 2.362-.9 3.486-3.149 3.486h-1.124c-2.137 0-3.036-1.124-3.036-3.486V49.786zM512.032 100.609c3.936 6.746 11.244 12.255 22.038 12.255 11.244 0 17.878-5.06 17.878-13.493 0-9.556-9.558-12.143-20.014-14.617-11.02-2.586-22.376-6.184-22.376-20.688 0-11.469 10.457-20.015 24.399-20.015 15.067 0 24.062 7.871 24.062 12.593 0 3.262-4.273 4.948-4.497 4.61-3.374-5.959-10.457-10.569-19.452-10.569-10.12 0-17.091 5.285-17.091 13.155 0 9.332 7.646 11.245 18.665 13.831 11.58 2.698 23.837 6.971 23.837 21.363 0 12.368-10.008 20.465-25.3 20.465-16.19 0-26.647-8.995-26.647-14.281 0-3.26 4.273-4.948 4.498-4.61M582.192 49.786c0-2.81 2.25-4.835 5.51-4.835h1.8c3.934 0 4.946 1.8 6.632 5.734l19.115 42.39 19.226-42.39c1.687-3.935 2.7-5.734 6.634-5.734h1.575c3.26 0 5.508 2.024 5.508 4.835v65.326c0 2.362-1.01 3.486-3.259 3.486h-.9c-2.136 0-3.148-1.124-3.148-3.486v-61.39l-19.115 41.49c-1.349 3.035-2.923 4.834-6.634 4.834-3.822 0-5.284-1.799-6.633-4.835l-19.002-41.489v61.39c0 2.362-.9 3.486-3.148 3.486h-1.125c-2.137 0-3.036-1.124-3.036-3.486V49.786zM674.843 49.674a4.27 4.27 0 0 1 4.272-4.272h43.513c2.25 0 3.486 1.124 3.486 3.148v.675c0 2.136-1.237 3.147-3.486 3.147H682.49v25.074h32.157c2.25 0 3.485 1.124 3.485 3.148v.45c0 2.137-1.236 3.149-3.485 3.149H682.49v26.984h40.814c2.25 0 3.485 1.013 3.485 3.036v.675c0 2.137-1.236 3.26-3.485 3.26h-44.188a4.27 4.27 0 0 1-4.272-4.272V49.674zM748.94 50.124c0-2.812 1.46-5.173 4.16-5.173h1.91c2.813 0 4.049 1.462 5.848 4.048l39.466 57.231V48.437c0-2.36.899-3.486 3.147-3.486h1.013c2.137 0 3.036 1.125 3.036 3.486v64.99c0 3.035-1.462 5.171-3.935 5.171h-.563c-2.811 0-3.485-.9-4.947-2.923l-41.94-60.604v60.041c0 2.362-.9 3.486-3.147 3.486h-1.013c-2.136 0-3.035-1.124-3.035-3.486V50.124zM117.324 64.173c.99 1.991.667 3.46-.879 4.316-.028.017-.056.034-.095.05a5.092 5.092 0 0 1-1.323.546c-6.18 1.696-12.366 3.409-18.629 4.734-5.096 1.079-8.767-2.782-7.62-7.9 1.361-6.068 2.975-12.087 4.605-18.1.283-1.063.7-1.847 1.24-2.331.79-.878 1.992-.913 3.632-.228 0 0 12.388 5.391 19.07 18.913m3.526 13.784c.161.629.233 1.302.256 1.958.305 8.728-1.836 16.799-6.67 24.103-1.847 2.793-3.51 3.02-5.98.751-2.08-1.913-4.016-3.983-6.019-5.986-1.863-1.863-3.87-3.615-5.55-5.64-1.236-1.48-2.454-3.209-2.955-5.023-.845-3.071 1.018-6.28 4.634-7.448 6.18-1.986 12.505-3.538 18.807-5.124 1.914-.478 2.96.423 3.477 2.409M58.288 54.633c-2.926-2.981-2.748-4.628.834-6.897 7.226-4.579 15.142-6.676 23.686-6.275 3.911.183 4.867 1.507 3.888 5.268-1.329 5.112-2.653 10.229-4.133 15.291-.51 1.769-1.474 3.41-2.236 5.106-2.403 1.947-5.123 2.376-7.843.846a16.331 16.331 0 0 1-3.377-2.542 659.453 659.453 0 0 1-10.819-10.797m45.458 54.836c2.286 2.409 2.08 4.172-.707 5.98-7.33 4.75-15.358 7.037-24.103 6.625-4.133-.195-5.084-1.446-4.038-5.351 1.413-5.274 2.91-10.519 4.39-15.77.232-.812.566-1.602.95-2.342 2.086-4.01 5.963-4.996 9.718-2.498.467.312.962.618 1.363 1.007 2.147 2.114 4.266 4.255 6.397 6.386l.045-.044c1.996 1.996 4.038 3.96 5.985 6.007m-40.224 8.706c-4.316-1.814-7.943-4.662-11.092-7.621-3.409-3.499-6.107-7.12-7.982-11.286-1.118-2.488-.456-4.095 2.125-4.807 5.991-1.652 11.988-3.343 18.067-4.605 5.663-1.168 9.173 2.197 8.066 7.898-1.218 6.27-3.02 12.433-4.739 18.591-.64 2.308-2.092 2.825-4.445 1.83M40.6 84.96c-.768-9.557 1.57-18.334 7.092-26.194 1.42-2.008 3.104-2.036 5.057-.239 2.214 2.046 4.283 4.25 6.413 6.38l-.106.106c2.27 2.269 4.74 4.361 6.748 6.837 3.705 4.572 2.46 9.289-3.126 11.135-5.89 1.953-11.96 3.405-17.995 4.923-2.498.629-3.877-.361-4.083-2.948m95.121-21.383c-4.412 1.052-5.363.646-7.288-3.448-5.529-11.715-14.134-20.331-25.82-25.9-4.273-2.035-4.696-2.97-3.628-7.465.63-2.631.133-3.549-2.264-4.222-2.47-.701-3.388-.183-4.16 2.348-.19.634-.35 1.274-.529 1.908-.523 1.869-1.819 2.831-3.699 2.942-1.124.056-2.259-.055-3.388-.128-12.388-.806-23.747 2.186-33.998 9.234-4.278 2.943-5.235 2.898-9.018-.55-1.735-1.591-2.959-1.569-4.6.083-1.619 1.63-1.635 2.848-.033 4.628.495.562 1.023 1.102 1.546 1.646 1.37 1.414 1.435 3.015.607 4.69-.418.84-.924 1.646-1.469 2.414-4.484 6.342-7.565 13.339-8.61 21.005-.663 4.911-.54 9.951-.557 14.93-.01 3.437-.656 4.605-3.883 5.574-.723.211-1.596.25-2.13.683-.663.54-1.397 1.385-1.486 2.164-.35 3.087 1.486 4.579 4.49 3.855 4.3-1.04 5.495-.512 7.348 3.443 5.512 11.71 14.084 20.349 25.788 25.889 4.266 2.03 4.706 3.004 3.66 7.498-.64 2.709-.167 3.594 2.225 4.228 2.51.673 3.466.072 4.272-2.659.317-1.074.68-2.136 1.08-3.393.817-.362 1.624-.902 2.502-1.046 1.096-.184 2.253-.128 3.377-.039 12.811.996 24.47-2.197 35.056-9.468 3.843-2.642 4.722-2.53 8.282.685 1.975 1.796 3.06 1.802 4.818.022 1.735-1.758 1.685-2.754-.218-4.767-3.126-3.316-3.248-4.328-.667-8.077 7.387-10.747 10.62-22.579 9.54-35.595-.378-4.529.172-5.268 4.583-6.609 2.682-.823 3.266-1.818 2.56-4.327-.668-2.359-1.575-2.809-4.289-2.176M21.832 22.646c1.692-1.635 4.504-1.48 6.039.383 2.809 3.41 5.577 6.855 8.383 10.269 1.045 1.27 1.218 2.594.097 3.823-1.099 1.203-2.451 1.32-3.808.336-.456-.331-.861-.73-1.297-1.088-2.907-2.384-5.771-4.823-8.74-7.127-2.288-1.777-2.658-4.68-.674-6.596M139.549 135.191c1.86 1.29 1.879 3.958.296 5.573-1.66 1.694-4.525 1.686-6.05-.12a685.817 685.817 0 0 1-8.425-10.22c-1.178-1.454-1.196-3.006-.091-4.08 1.194-1.16 2.538-1.235 3.804-.16 3.51 2.977 6.98 6.001 10.466 9.007M61.748 142.994c.913-.116 2-.57 2.795-.269.807.308 1.521 1.278 1.905 2.124.263.582-.083 1.454-.203 2.187-.605 3.711-1.32 7.406-1.8 11.133-.252 1.962-.897 3.455-2.848 4.121-1.684.575-3.17.191-4.378-1.11-1.406-1.517-1.26-3.123-.505-4.963 1.465-3.56 2.71-7.21 4.056-10.822.258-.694.557-1.374.977-2.4M160.555 58.55c.878 1.003 1.282 2.38.78 3.969-.507 1.597-1.61 2.51-3.243 2.787a3392.55 3392.55 0 0 1-13.073 2.187c-1.596.265-2.798-.27-3.364-1.85-.539-1.504.156-2.906 1.878-3.574 1.225-.476 2.565-.652 3.792-1.123 2.722-1.043 5.414-2.167 8.1-3.297 2.03-.855 3.616-.661 5.13.9"/>
        <g transform="translate(95 .55)">
            <mask id="b" fill="#fff">
                <use xlink:href="#a"/>
            </mask>
            <path fill="#525252" d="M9.344 1.765c1.187 1.362 1.403 2.882.704 4.662-1.512 3.846-2.93 7.73-4.36 11.608-.703 1.909-1.958 2.774-3.578 2.378-1.641-.401-2.331-1.754-1.985-3.786A1327.2 1327.2 0 0 0 2.215 4.11C2.5 2.35 3.426 1.145 5.12.64 6.685.176 8.1.563 9.344 1.765" mask="url(#b)"/>
        </g>
        <path fill="#525252" d="M1.604 105.581c-1.53-1.524-1.878-2.957-1.411-4.51.47-1.568 1.586-2.53 3.232-2.81 4.357-.744 8.71-1.508 13.074-2.218 1.832-.298 3.122.524 3.482 2.081.357 1.544-.413 2.811-2.144 3.46-4.05 1.518-8.108 3.01-12.155 4.532-1.673.63-3.132.33-4.078-.535"/>
        <path fill="#36A4FF" d="M77.49 82.856v5.806h-2.42V74.888h2.42v5.727h6.573v-5.727h2.42v13.773h-2.42v-5.805z"/>
    </g>
</svg>
