<svg xmlns="http://www.w3.org/2000/svg" xmlns:xlink="http://www.w3.org/1999/xlink" width="93" height="93" viewBox="0 0 93 93">
    <defs>
        <path id="a" d="M11.745.348V6.42H.272V.348h11.473z"/>
        <path id="c" d="M.02.257h5.677v11.461H.021V.258z"/>
    </defs>
    <g fill="none" fill-rule="evenodd">
        <path fill="#525252" d="M66.881 37.3c.566 1.154.382 2.006-.502 2.502a.363.363 0 0 1-.054.03c-.21.128-.46.235-.756.316-3.532.983-7.065 1.976-10.644 2.744-2.912.626-5.009-1.613-4.354-4.58.778-3.517 1.7-7.007 2.631-10.493.162-.616.4-1.07.709-1.351.451-.509 1.138-.53 2.075-.132 0 0 7.078 3.125 10.895 10.964m2.016 7.991c.092.365.133.755.146 1.135.174 5.06-1.05 9.739-3.811 13.973-1.055 1.62-2.006 1.75-3.417.436-1.188-1.11-2.294-2.31-3.439-3.47-1.064-1.08-2.212-2.096-3.171-3.27-.706-.858-1.402-1.86-1.688-2.912-.483-1.78.581-3.641 2.647-4.318 3.531-1.151 7.145-2.051 10.746-2.97 1.094-.278 1.69.245 1.987 1.396M33.15 31.77c-1.671-1.729-1.57-2.683.477-3.999 4.129-2.654 8.652-3.87 13.533-3.638 2.235.106 2.781.874 2.222 3.054-.76 2.964-1.516 5.93-2.362 8.865-.292 1.025-.842 1.977-1.277 2.96-1.373 1.129-2.927 1.377-4.481.49a9.344 9.344 0 0 1-1.93-1.473 379.577 379.577 0 0 1-6.182-6.26m25.974 31.79c1.306 1.397 1.188 2.419-.404 3.467-4.19 2.754-8.775 4.08-13.772 3.84-2.361-.112-2.905-.838-2.307-3.101.807-3.058 1.662-6.099 2.508-9.143.133-.47.323-.928.543-1.357 1.192-2.325 3.407-2.897 5.552-1.449.267.181.55.359.78.584 1.226 1.226 2.437 2.467 3.654 3.702l.026-.025c1.14 1.157 2.307 2.296 3.42 3.482M36.14 68.606c-2.466-1.051-4.538-2.702-6.338-4.418-1.947-2.028-3.489-4.127-4.56-6.543-.639-1.442-.26-2.374 1.214-2.786 3.423-.958 6.85-1.938 10.323-2.67 3.235-.677 5.24 1.274 4.608 4.579-.696 3.635-1.725 7.207-2.707 10.777-.366 1.338-1.196 1.638-2.54 1.061M23.044 49.351c-.44-5.54.896-10.629 4.052-15.185.81-1.165 1.773-1.18 2.89-.139 1.264 1.186 2.446 2.464 3.663 3.699l-.06.061c1.297 1.315 2.708 2.528 3.855 3.964 2.117 2.65 1.405 5.385-1.786 6.455-3.366 1.132-6.833 1.974-10.281 2.854-1.428.364-2.216-.21-2.333-1.71m54.348-12.395c-2.52.61-3.064.374-4.164-2-3.159-6.79-8.075-11.786-14.753-15.014-2.44-1.18-2.683-1.722-2.072-4.328.36-1.525.076-2.057-1.294-2.447-1.411-.407-1.936-.106-2.377 1.36-.108.368-.2.74-.302 1.107-.299 1.083-1.04 1.641-2.113 1.705-.643.033-1.291-.031-1.936-.074-7.078-.467-13.568 1.268-19.425 5.353-2.445 1.707-2.992 1.68-5.153-.318-.991-.923-1.69-.91-2.628.048-.925.945-.934 1.65-.02 2.683.284.325.585.639.884.954.782.82.82 1.748.347 2.719-.239.487-.528.954-.84 1.4-2.561 3.676-4.322 7.732-4.92 12.176-.378 2.847-.308 5.77-.317 8.656-.006 1.992-.375 2.67-2.219 3.231-.413.122-.912.145-1.217.396-.378.313-.798.803-.849 1.254-.2 1.79.85 2.655 2.566 2.235 2.456-.603 3.14-.297 4.198 1.996 3.15 6.789 8.047 11.797 14.734 15.009 2.438 1.177 2.69 1.741 2.092 4.346-.366 1.57-.096 2.084 1.27 2.452 1.434.39 1.981.041 2.442-1.542.18-.623.388-1.238.616-1.967.468-.21.929-.523 1.43-.606.627-.107 1.288-.075 1.93-.023 7.32.577 13.981-1.274 20.03-5.489 2.195-1.531 2.698-1.466 4.732.397 1.128 1.042 1.748 1.045 2.752.013.992-1.02.963-1.596-.124-2.763-1.786-1.923-1.856-2.51-.381-4.683 4.22-6.23 6.067-13.09 5.45-20.635-.215-2.626.099-3.054 2.62-3.831 1.532-.478 1.865-1.054 1.462-2.509-.382-1.368-.9-1.628-2.45-1.261M12.778 12.68c1.02-.985 2.717-.892 3.643.23 1.695 2.054 3.365 4.13 5.058 6.186.63.766.735 1.563.058 2.303-.663.725-1.478.796-2.297.203-.275-.2-.52-.44-.783-.656-1.754-1.436-3.481-2.905-5.273-4.293-1.38-1.07-1.603-2.819-.406-3.973M79.215 77.887c1.013.777 1.023 2.385.16 3.358-.903 1.02-2.464 1.016-3.294-.072a407.401 407.401 0 0 1-4.59-6.16c-.641-.875-.651-1.81-.05-2.459.651-.698 1.383-.744 2.073-.096 1.912 1.795 3.802 3.617 5.7 5.429M35.231 82.205c.528-.064 1.155-.316 1.614-.149.466.17.878.706 1.1 1.173.151.321-.049.802-.118 1.207-.349 2.049-.761 4.088-1.039 6.146-.146 1.083-.518 1.907-1.644 2.275-.972.317-1.83.105-2.527-.613-.812-.838-.728-1.724-.291-2.74.845-1.966 1.564-3.98 2.34-5.974.15-.383.323-.758.565-1.325"/>
        <g transform="translate(81 33)">
            <mask id="b" fill="#fff">
                <use xlink:href="#a"/>
            </mask>
            <path fill="#525252" d="M11.174 1.167c.502.585.733 1.388.445 2.315-.289.931-.92 1.465-1.852 1.626-2.49.43-4.98.855-7.47 1.275-.912.155-1.6-.157-1.923-1.079-.308-.877.09-1.695 1.073-2.085.7-.277 1.466-.38 2.167-.655A152.94 152.94 0 0 0 8.243.641c1.16-.499 2.066-.386 2.931.526" mask="url(#b)"/>
        </g>
        <g transform="translate(55)">
            <mask id="d" fill="#fff">
                <use xlink:href="#c"/>
            </mask>
            <path fill="#525252" d="M5.097 1.008c.647.779.765 1.647.384 2.664-.825 2.198-1.599 4.417-2.378 6.633-.384 1.091-1.069 1.586-1.952 1.36C.256 11.434-.121 10.661.068 9.5a791.64 791.64 0 0 0 1.14-7.152c.155-1.006.66-1.695 1.585-1.983.853-.266 1.626-.045 2.304.642" mask="url(#d)"/>
        </g>
        <path fill="#525252" d="M.959 60.5c-.914-.873-1.123-1.694-.844-2.584.282-.898.949-1.45 1.933-1.61 2.606-.427 5.21-.864 7.819-1.271 1.095-.171 1.867.3 2.082 1.192.213.885-.247 1.611-1.282 1.983-2.422.87-4.85 1.725-7.27 2.597-1 .362-1.872.19-2.438-.306"/>
        <path fill="#36A4FF" d="M44.484 47.628V51H43v-8h1.484v3.326h4.032V43H50v8h-1.484v-3.372z"/>
    </g>
</svg>
