<svg xmlns="http://www.w3.org/2000/svg" width="29" height="24" viewBox="0 0 29 24">
    <g fill="#000" fill-rule="evenodd" opacity=".2">
        <path d="M.061 24h6.161V7.74H.062V24zM3.173 0C1.312 0 0 1.285 0 3.108c0 1.824 1.312 3.109 3.173 3.109 1.86 0 3.17-1.285 3.17-3.11C6.344 1.286 5.034 0 3.174 0zM23.09 7.111c-2.292 0-4.072.979-5.217 2.816V7.355H11.78V24h6.092v-8.23c0-1.897 1.024-3.213 2.683-3.243 1.417 0 2.353 1.04 2.353 2.693V24H29V13.445c0-3.855-2.413-6.334-5.91-6.334"/>
    </g>
</svg>
