<svg xmlns="http://www.w3.org/2000/svg" width="34" height="34" viewBox="0 0 34 34">
    <g fill="#000" fill-rule="evenodd">
        <path d="M16.995.01c-4.616 0-5.195.02-7.007.103-1.81.083-3.044.37-4.126.79a8.33 8.33 0 0 0-3.01 1.96 8.33 8.33 0 0 0-1.96 3.01C.472 6.954.185 8.19.102 10 .02 11.81 0 12.389 0 17.005s.02 5.195.102 7.007c.083 1.81.37 3.045.79 4.126a8.33 8.33 0 0 0 1.96 3.01 8.331 8.331 0 0 0 3.01 1.96c1.082.42 2.317.707 4.126.79 1.812.082 2.391.102 7.007.102 4.615 0 5.194-.02 7.006-.102 1.81-.083 3.045-.37 4.126-.79a8.33 8.33 0 0 0 3.01-1.96 8.33 8.33 0 0 0 1.96-3.01c.42-1.081.708-2.317.79-4.126.083-1.812.102-2.391.102-7.007 0-4.615-.02-5.194-.102-7.006-.082-1.81-.37-3.045-.79-4.126a8.33 8.33 0 0 0-1.96-3.01 8.33 8.33 0 0 0-3.01-1.96C27.046.483 25.81.196 24 .113 22.19.03 21.611.011 16.995.011m0 3.062c4.537 0 5.075.017 6.867.099 1.657.075 2.557.352 3.156.585.793.308 1.359.677 1.954 1.271.594.595.963 1.161 1.271 1.954.233.6.51 1.5.585 3.156.082 1.792.1 2.33.1 6.867 0 4.538-.018 5.076-.1 6.868-.076 1.657-.352 2.556-.585 3.155a5.267 5.267 0 0 1-1.271 1.954 5.265 5.265 0 0 1-1.954 1.272c-.6.232-1.5.51-3.156.585-1.792.082-2.33.099-6.867.099-4.538 0-5.076-.017-6.868-.1-1.657-.075-2.557-.352-3.155-.584a5.265 5.265 0 0 1-1.954-1.272 5.266 5.266 0 0 1-1.272-1.954c-.232-.599-.51-1.498-.585-3.155-.082-1.792-.099-2.33-.099-6.868 0-4.537.017-5.075.1-6.867.075-1.657.352-2.557.584-3.156a5.266 5.266 0 0 1 1.272-1.954 5.265 5.265 0 0 1 1.954-1.27c.598-.234 1.498-.51 3.155-.586 1.792-.082 2.33-.1 6.868-.1"/>
        <path d="M17 22.518a5.518 5.518 0 1 1 0-11.036 5.518 5.518 0 0 1 0 11.036M17 8.5a8.5 8.5 0 1 0 0 17 8.5 8.5 0 0 0 0-17M27.929 7.893a1.821 1.821 0 1 1-3.643 0 1.821 1.821 0 0 1 3.643 0"/>
    </g>
</svg>
