<svg xmlns="http://www.w3.org/2000/svg" xmlns:xlink="http://www.w3.org/1999/xlink" width="30" height="24" viewBox="0 0 30 24">
    <defs>
        <path id="a" d="M30 0v24H0V0z"/>
    </defs>
    <g fill="none" fill-rule="evenodd" opacity=".2">
        <mask id="b" fill="#fff">
            <use xlink:href="#a"/>
        </mask>
        <path fill="#000" d="M30 2.84c-1.104.484-2.29.809-3.534.954A6.088 6.088 0 0 0 29.17.443a12.439 12.439 0 0 1-3.907 1.47A6.195 6.195 0 0 0 20.771 0c-3.399 0-6.156 2.713-6.156 6.059 0 .474.055.936.16 1.38A17.572 17.572 0 0 1 2.09 1.11a5.968 5.968 0 0 0-.834 3.047c0 2.101 1.087 3.955 2.74 5.043a6.2 6.2 0 0 1-2.79-.76v.078c0 2.934 2.123 5.383 4.938 5.941a6.265 6.265 0 0 1-2.78.102c.783 2.409 3.057 4.16 5.75 4.21a12.484 12.484 0 0 1-7.644 2.593c-.496 0-.987-.03-1.469-.084A17.63 17.63 0 0 0 9.435 24c11.32 0 17.512-9.231 17.512-17.238 0-.263-.006-.525-.017-.784A12.385 12.385 0 0 0 30 2.84" mask="url(#b)"/>
    </g>
</svg>
